<?xml version="1.0" encoding="utf-8"?>
<!-- Svg Vector Icons : http://www.onlinewebfonts.com/icon -->
<!DOCTYPE svg PUBLIC "-//W3C//DTD SVG 1.1//EN" "http://www.w3.org/Graphics/SVG/1.1/DTD/svg11.dtd">
<svg version="1.1" xmlns="http://www.w3.org/2000/svg" xmlns:xlink="http://www.w3.org/1999/xlink" x="0px" y="0px" viewBox="0 0 1000 1000" enable-background="new 0 0 1000 1000" xml:space="preserve">
<metadata> Svg Vector Icons : http://www.onlinewebfonts.com/icon </metadata>
<g><path d="M348.4,212c55.8,0,101.1-45.2,101.1-101c0-55.8-45.2-101-101.1-101h-1c-56.9,0-99.9,45.2-99.9,101C247.4,166.8,292.6,212,348.4,212z"/><path d="M953.9,850.5l-67.2-33.6L853,716l-134.5,33.6l-33.6,100.9h-67.2l-67,134c0.4-1.7,1.3-9.4,0.4-44.7c7-61-3.9-103.5-34.3-156.6V615.1L382.3,514.3l100.9-100.9l-67.2-134.5l-235.3-67.2L46.1,346.2v134.5l168.1,201.7L147,648.7L79.7,951.3H147L247.8,716l128.2,121.6l-61,46.5c31.6,77.4,119.1,121.4,235.4,100.9c0,0,0,0,0,0h336.2l33.6-33.6l-33.6-33.6L953.9,850.5z M180.6,480.6v33.6L113.4,447v-67.2l67.2-33.6V480.6z M449.6,783.2l-36.4,25.7l11.8-10.4L281.5,648.7h168.1V783.2z"/></g>
</svg>